<svg width="57" height="48" viewBox="0 0 57 48" fill="none" xmlns="http://www.w3.org/2000/svg">
<path fill-rule="evenodd" clip-rule="evenodd" d="M0.149994 3.99976C0.149994 2.93889 0.576689 1.92147 1.33621 1.17133C2.09573 0.421184 3.12587 -0.000244141 4.19999 -0.000244141H52.8C53.8741 -0.000244141 54.9043 0.421184 55.6638 1.17133C56.4233 1.92147 56.85 2.93889 56.85 3.99976C56.85 5.06062 56.4233 6.07804 55.6638 6.82818C54.9043 7.57833 53.8741 7.99976 52.8 7.99976H4.19999C3.12587 7.99976 2.09573 7.57833 1.33621 6.82818C0.576689 6.07804 0.149994 5.06062 0.149994 3.99976ZM0.149994 23.9998C0.149994 22.9389 0.576689 21.9215 1.33621 21.1713C2.09573 20.4212 3.12587 19.9998 4.19999 19.9998H52.8C53.8741 19.9998 54.9043 20.4212 55.6638 21.1713C56.4233 21.9215 56.85 22.9389 56.85 23.9998C56.85 25.0606 56.4233 26.078 55.6638 26.8282C54.9043 27.5783 53.8741 27.9998 52.8 27.9998H4.19999C3.12587 27.9998 2.09573 27.5783 1.33621 26.8282C0.576689 26.078 0.149994 25.0606 0.149994 23.9998ZM0.149994 43.9998C0.149994 42.9389 0.576689 41.9215 1.33621 41.1713C2.09573 40.4212 3.12587 39.9998 4.19999 39.9998H52.8C53.8741 39.9998 54.9043 40.4212 55.6638 41.1713C56.4233 41.9215 56.85 42.9389 56.85 43.9998C56.85 45.0606 56.4233 46.078 55.6638 46.8282C54.9043 47.5783 53.8741 47.9998 52.8 47.9998H4.19999C3.12587 47.9998 2.09573 47.5783 1.33621 46.8282C0.576689 46.078 0.149994 45.0606 0.149994 43.9998Z" fill="#03045E"/>
</svg>
